<?xml version="1.0" encoding="UTF-8" standalone="no" ?>
<!DOCTYPE svg PUBLIC "-//W3C//DTD SVG 1.1//EN" "http://www.w3.org/Graphics/SVG/1.1/DTD/svg11.dtd">
<svg xmlns="http://www.w3.org/2000/svg" xmlns:xlink="http://www.w3.org/1999/xlink" version="1.1" width="526.7298333740234" height="153.38" xml:space="preserve">
<desc>Created with Fabric.js 1.6.0-rc.1</desc>
<defs></defs>
<g style="stroke: none; stroke-width: 1; stroke-dasharray: none; stroke-linecap: butt; stroke-linejoin: miter; stroke-miterlimit: 10; fill: none; fill-rule: nonzero; opacity: 1;" transform="translate(10 10) scale(0.26 0.26)" >
  <circle cx="256" cy="256" r="256" style="stroke: none; stroke-width: 1; stroke-dasharray: none; stroke-linecap: butt; stroke-linejoin: miter; stroke-miterlimit: 10; fill: #edf8ff; fill-rule: nonzero; opacity: 0;" transform="  matrix(1 0 0 1 0 0) "/>
  <path d="M 228.087 241.715 c -10.468 -16.37 -41.877 -10.524 -41.877 18.716 c 0.647 26.61 41.877 46.769 41.877 46.769 s 41.225 -20.159 41.877 -46.774 C 269.964 231.191 238.555 225.345 228.087 241.715 z" style="stroke: none; stroke-width: 1; stroke-dasharray: none; stroke-linecap: butt; stroke-linejoin: miter; stroke-miterlimit: 10; fill: #fffff7; fill-rule: nonzero; opacity: 1;" transform=" matrix(1 0 0 1 0 0) " stroke-linecap="round" />
  <path d="M 319.386 386.327 L 319.386 386.327 h 80.905 c 0.307 0 0.573 0.116 0.87 0.172 c -4.813 -19.954 -11.976 -39.564 -21.821 -58.782 c -6.591 -12.865 -17.282 -23.175 -30.357 -29.333 l -47.905 -22.547 c -7.359 -3.458 -16.123 -1.517 -21.327 4.729 c -3.491 4.189 -4.878 9.751 -3.766 15.09 c 1.117 5.339 4.617 9.877 9.5 12.316 l 40.332 22.5 H 234.98 c -7.596 0 -15.071 -1.853 -21.783 -5.409 l -57.856 -30.627 c -6.414 -3.393 -14.336 -1.755 -18.874 3.919 c -2.718 3.398 -3.84 7.82 -3.072 12.111 c 0.773 4.296 3.365 8.048 7.098 10.291 l 68.547 41.123 c 6.428 3.859 13.48 6.586 20.838 8.052 l 75.874 10.287 c 4.673 0.628 8.825 3.021 11.762 6.535 C 318.101 386.499 318.729 386.327 319.386 386.327 z" style="stroke: none; stroke-width: 1; stroke-dasharray: none; stroke-linecap: butt; stroke-linejoin: miter; stroke-miterlimit: 10; fill: #fffff7; fill-rule: nonzero; opacity: 1;" transform=" matrix(1 0 0 1 0 0) " stroke-linecap="round" />
  <path d="M 326.535 206.262 l -42.608 -61.971 c -11.697 -11.697 -34.42 -23.394 -68.166 -35.091 c -4.045 -1.406 -8.429 -1.373 -12.456 0.093 l -77.633 24.469 v 78.992 l 17.664 -10.119 c 3.645 -1.62 7.708 -2.02 11.599 -1.159 l 64.326 14.294 c 7.652 1.699 15.346 -2.653 17.822 -10.091 c 1.303 -3.905 0.973 -8.173 -0.908 -11.832 c -1.88 -3.658 -5.162 -6.405 -9.095 -7.615 l -41.779 -12.856 c -2.243 -0.684 -3.775 -2.765 -3.775 -5.115 c 0 -2.956 2.402 -5.353 5.353 -5.353 h 55.962 c 5.399 0 10.533 2.346 14.066 6.428 l 47.099 54.346 c 4.534 5.227 12.167 6.447 18.106 2.881 c 3.379 -2.02 5.762 -5.348 6.6 -9.193 C 329.556 213.527 328.765 209.51 326.535 206.262 z" style="stroke: none; stroke-width: 1; stroke-dasharray: none; stroke-linecap: butt; stroke-linejoin: miter; stroke-miterlimit: 10; fill: #fffff7; fill-rule: nonzero; opacity: 1;" transform=" matrix(1 0 0 1 0 0) " stroke-linecap="round" />
  <path d="M 107.055 220.542 c 0 1.615 0.838 3.114 2.211 3.961 c 1.368 0.852 3.081 0.926 4.529 0.205 l 9.309 -4.655 c 1.569 -0.791 2.569 -2.402 2.569 -4.166 v -82.688 c 0 -1.61 -0.838 -3.109 -2.211 -3.956 c -1.373 -0.847 -3.081 -0.926 -4.529 -0.205 l -9.309 4.655 c -1.573 0.791 -2.569 2.402 -2.569 4.161 V 220.542 z" style="stroke: none; stroke-width: 1; stroke-dasharray: none; stroke-linecap: butt; stroke-linejoin: miter; stroke-miterlimit: 10; fill: #fffff7; fill-rule: nonzero; opacity: 1;" transform=" matrix(1 0 0 1 0 0) " stroke-linecap="round" />
  <path d="M 228.073 241.701 c -10.482 -16.351 -41.863 -10.501 -41.863 18.725 c 0.647 26.564 41.723 46.699 41.863 46.764 V 241.701 z" style="stroke: none; stroke-width: 1; stroke-dasharray: none; stroke-linecap: butt; stroke-linejoin: miter; stroke-miterlimit: 10; fill: #fffff7; fill-rule: nonzero; opacity: 1;" transform=" matrix(1 0 0 1 0 0) " stroke-linecap="round" />
  <path d="M 348.979 298.384 l -47.905 -22.547 c -7.359 -3.458 -16.123 -1.517 -21.327 4.729 c -3.491 4.189 -4.878 9.751 -3.766 15.09 c 1.117 5.339 4.617 9.877 9.491 12.316 l 40.346 22.5 H 234.98 c -7.596 0 -15.071 -1.853 -21.783 -5.409 l -57.856 -30.627 c -6.414 -3.393 -14.336 -1.755 -18.874 3.914 c -2.723 3.402 -3.84 7.824 -3.072 12.116 c 0.773 4.296 3.365 8.048 7.098 10.291 l 68.547 41.123 c 6.433 3.859 13.48 6.586 20.838 8.052 l 42.003 5.697 l 100.831 -58.219 C 366.434 309.346 358.33 302.792 348.979 298.384 z" style="stroke: none; stroke-width: 1; stroke-dasharray: none; stroke-linecap: butt; stroke-linejoin: miter; stroke-miterlimit: 10; fill: #fffff7; fill-rule: nonzero; opacity: 1;" transform=" matrix(1 0 0 1 0 0) " stroke-linecap="round" />
  <path d="M 299.38 282.596 c -5.288 -2.495 -11.646 -1.294 -15.109 2.849 c -2.071 2.481 -2.811 5.711 -2.02 8.825 c 0.787 3.119 3.025 5.827 6.135 7.438 l 2.793 1.434 l 12.074 -18.721 L 299.38 282.596 z" style="stroke: none; stroke-width: 1; stroke-dasharray: none; stroke-linecap: butt; stroke-linejoin: miter; stroke-miterlimit: 10; fill: #fffff7; fill-rule: nonzero; opacity: 1;" transform=" matrix(1 0 0 1 0 0) " stroke-linecap="round" />
  <path d="M 219.471 210.963 c 4.971 1.103 9.975 -1.727 11.581 -6.558 c 0.847 -2.541 0.633 -5.315 -0.591 -7.689 c -1.229 -2.378 -3.356 -4.161 -5.916 -4.948 l -4.743 -1.457 l -5.525 19.503 L 219.471 210.963 z" style="stroke: none; stroke-width: 1; stroke-dasharray: none; stroke-linecap: butt; stroke-linejoin: miter; stroke-miterlimit: 10; fill: #fffff7; fill-rule: nonzero; opacity: 1;" transform=" matrix(1 0 0 1 0 0) " stroke-linecap="round" />
  <path d="M 404.945 390.982 c 0 -2.569 -2.081 -4.655 -4.655 -4.655 h -80.91 c -1.61 0 -3.109 0.838 -3.956 2.211 c -0.852 1.373 -0.926 3.081 -0.205 4.529 l 4.655 9.309 c 0.791 1.569 2.402 2.569 4.161 2.569 h 76.255 c 2.574 0 4.655 -2.081 4.655 -4.655 V 390.982 z" style="stroke: none; stroke-width: 1; stroke-dasharray: none; stroke-linecap: butt; stroke-linejoin: miter; stroke-miterlimit: 10; fill: #fffff7; fill-rule: nonzero; opacity: 1;" transform=" matrix(1 0 0 1 0 0) " stroke-linecap="round" />
</g>
  <g transform="translate(320.37 77.61) scale(1 0.97)">
   <text font-family="zwodrei - free" font-size="40" font-weight="normal" style="stroke: none; stroke-width: 1; stroke-dasharray: none; stroke-linecap: butt; stroke-linejoin: miter; stroke-miterlimit: 10; fill: #ffffff; fill-rule: nonzero; opacity: 1;" ><tspan x="-196.86" y="8.98" style="stroke: none; stroke-width: 0; stroke-dasharray: none; stroke-linecap: butt; stroke-linejoin: miter; stroke-miterlimit: 4; fill: #ffffff; fill-rule: ; opacity: 1;">D</tspan><tspan x="-168.74" y="8.98" style="stroke: none; stroke-width: 0; stroke-dasharray: none; stroke-linecap: butt; stroke-linejoin: miter; stroke-miterlimit: 4; fill: #ffffff; fill-rule: ; opacity: 1;">o</tspan><tspan x="-146.18" y="8.98" style="stroke: none; stroke-width: 0; stroke-dasharray: none; stroke-linecap: butt; stroke-linejoin: miter; stroke-miterlimit: 4; fill: #ffffff; fill-rule: ; opacity: 1;">n</tspan><tspan x="-122.3" y="8.98" style="stroke: none; stroke-width: 0; stroke-dasharray: none; stroke-linecap: butt; stroke-linejoin: miter; stroke-miterlimit: 4; fill: #ffffff; fill-rule: ; opacity: 1;">a</tspan><tspan x="-102.58" y="8.98" style="stroke: none; stroke-width: 0; stroke-dasharray: none; stroke-linecap: butt; stroke-linejoin: miter; stroke-miterlimit: 4; fill: #ffffff; fill-rule: ; opacity: 1;">c</tspan><tspan x="-83.74" y="8.98" style="stroke: none; stroke-width: 0; stroke-dasharray: none; stroke-linecap: butt; stroke-linejoin: miter; stroke-miterlimit: 4; fill: #ffffff; fill-rule: ; opacity: 1;">i</tspan><tspan x="-72.94" y="8.98" style="stroke: none; stroke-width: 0; stroke-dasharray: none; stroke-linecap: butt; stroke-linejoin: miter; stroke-miterlimit: 4; fill: #ffffff; fill-rule: ; opacity: 1;">o</tspan><tspan x="-50.38" y="8.98" style="stroke: none; stroke-width: 0; stroke-dasharray: none; stroke-linecap: butt; stroke-linejoin: miter; stroke-miterlimit: 4; fill: #ffffff; fill-rule: ; opacity: 1;">n</tspan><tspan x="-26.5" y="8.98" style="stroke: none; stroke-width: 0; stroke-dasharray: none; stroke-linecap: butt; stroke-linejoin: miter; stroke-miterlimit: 4; fill: #ffffff; fill-rule: ; opacity: 1;">e</tspan><tspan x="-5.46" y="8.98" style="stroke: none; stroke-width: 0; stroke-dasharray: none; stroke-linecap: butt; stroke-linejoin: miter; stroke-miterlimit: 4; fill: #ffffff; fill-rule: ; opacity: 1;">s</tspan><tspan x="12.86" y="8.98" style="stroke: none; stroke-width: 0; stroke-dasharray: none; stroke-linecap: butt; stroke-linejoin: miter; stroke-miterlimit: 4; fill: #ffffff; fill-rule: ; opacity: 1;"> </tspan><tspan x="23.26" y="8.98" style="stroke: none; stroke-width: 0; stroke-dasharray: none; stroke-linecap: butt; stroke-linejoin: miter; stroke-miterlimit: 4; fill: #ffffff; fill-rule: ; opacity: 1;">M</tspan><tspan x="56.54" y="8.98" style="stroke: none; stroke-width: 0; stroke-dasharray: none; stroke-linecap: butt; stroke-linejoin: miter; stroke-miterlimit: 4; fill: #ffffff; fill-rule: ; opacity: 1;">a</tspan><tspan x="76.26" y="8.98" style="stroke: none; stroke-width: 0; stroke-dasharray: none; stroke-linecap: butt; stroke-linejoin: miter; stroke-miterlimit: 4; fill: #ffffff; fill-rule: ; opacity: 1;">r</tspan><tspan x="92.58" y="8.98" style="stroke: none; stroke-width: 0; stroke-dasharray: none; stroke-linecap: butt; stroke-linejoin: miter; stroke-miterlimit: 4; fill: #ffffff; fill-rule: ; opacity: 1;">g</tspan><tspan x="115.14" y="8.98" style="stroke: none; stroke-width: 0; stroke-dasharray: none; stroke-linecap: butt; stroke-linejoin: miter; stroke-miterlimit: 4; fill: #ffffff; fill-rule: ; opacity: 1;">a</tspan><tspan x="134.86" y="8.98" style="stroke: none; stroke-width: 0; stroke-dasharray: none; stroke-linecap: butt; stroke-linejoin: miter; stroke-miterlimit: 4; fill: #ffffff; fill-rule: ; opacity: 1;">r</tspan><tspan x="151.18" y="8.98" style="stroke: none; stroke-width: 0; stroke-dasharray: none; stroke-linecap: butt; stroke-linejoin: miter; stroke-miterlimit: 4; fill: #ffffff; fill-rule: ; opacity: 1;">i</tspan><tspan x="161.98" y="8.98" style="stroke: none; stroke-width: 0; stroke-dasharray: none; stroke-linecap: butt; stroke-linejoin: miter; stroke-miterlimit: 4; fill: #ffffff; fill-rule: ; opacity: 1;">t</tspan><tspan x="177.14" y="8.98" style="stroke: none; stroke-width: 0; stroke-dasharray: none; stroke-linecap: butt; stroke-linejoin: miter; stroke-miterlimit: 4; fill: #ffffff; fill-rule: ; opacity: 1;">a</tspan></text>
 </g>
</svg>